<?xml version="1.0" encoding="UTF-8" standalone="no"?>
<!DOCTYPE svg PUBLIC "-//W3C//DTD SVG 1.1//EN" "http://www.w3.org/Graphics/SVG/1.1/DTD/svg11.dtd">
<svg width="100%" height="100%" viewBox="0 0 400 400" version="1.1" xmlns="http://www.w3.org/2000/svg" xmlns:xlink="http://www.w3.org/1999/xlink" xml:space="preserve" xmlns:serif="http://www.serif.com/" style="fill-rule:evenodd;clip-rule:evenodd;stroke-linejoin:round;stroke-miterlimit:2;">
    <g transform="matrix(1,0,0,1,-728,-1122)">
        <g id="github头像" transform="matrix(1.16218,0,0,1.1818,-118.342,-1263.21)">
            <rect x="728.237" y="2018.28" width="344.181" height="338.466" style="fill:rgb(248,247,250);"/>
            <g id="path22" transform="matrix(1.09437,0,0,1.0762,666.314,-179.314)">
                <path d="M158.407,2302.88C182.106,2310.45 199.765,2311.13 215.226,2291.64C253.415,2243.49 246.617,2189.68 246.617,2189.68C243.297,2144.59 214.359,2112 214.359,2112C214.359,2112 205.294,2100.45 194.826,2092.34C193.246,2091.12 191.267,2090.53 189.281,2090.73C187.115,2090.96 184.413,2091.75 182.629,2094.11C182.082,2094.83 181.769,2095.7 181.589,2096.59C180.705,2100.96 176.582,2117.25 162.77,2127.66C161.918,2128.31 161.026,2128.89 160.13,2129.47C153.207,2133.95 114.595,2160.42 106.217,2198.98C106.217,2198.98 87.825,2263.53 151.673,2299.63C151.673,2299.63 155.698,2302.01 158.407,2302.88ZM247.955,2264.37C267.51,2230.76 263.075,2190.09 263.075,2190.09C261.151,2163.95 250.222,2142.21 241.918,2129.15C241.918,2129.15 237.062,2123.29 242.474,2118.02C242.474,2118.02 245.454,2114.3 251.719,2116.46C251.719,2116.46 279.334,2124.25 298.33,2146.64C298.33,2146.64 327.295,2176.72 323.582,2221.68C323.582,2221.68 323.084,2259.43 291.362,2289.01C291.362,2289.01 250.751,2325.16 243.71,2288.53C243.71,2288.53 242.922,2273.02 247.955,2264.37Z" style="fill:rgb(135,51,216);fill-rule:nonzero;"/>
            </g>
        </g>
    </g>
</svg>
